<?xml version="1.0" standalone="no"?><!DOCTYPE svg PUBLIC "-//W3C//DTD SVG 1.1//EN" "http://www.w3.org/Graphics/SVG/1.1/DTD/svg11.dtd"><svg t="1639801683071" class="icon" viewBox="0 0 1565 1024" version="1.1" xmlns="http://www.w3.org/2000/svg" p-id="2797" xmlns:xlink="http://www.w3.org/1999/xlink" width="48.90625" height="32"><defs><style type="text/css"></style></defs><path d="M1206.510527 299.331595c-27.357038 0-53.867311 3.354494-79.465683 9.119013C1078.551237 130.792698 916.428217 0 723.398257 0c-231.329814 0-418.82323 187.493416-418.82323 418.790662 0 16.023408 1.107309 31.786273 2.865975 47.353731-9.151581-0.879333-18.400865-1.40042-27.812989-1.40042C125.223586 464.743973 0 589.934991 0 744.371987s125.223586 279.628013 279.628013 279.628013c134.928821 0 782.150754 0 926.849946 0 197.947713 0 358.40977-168.34349 358.40977-366.291203C1564.920298 459.761084 1404.458241 299.331595 1206.510527 299.331595z" p-id="2798" fill="#ffffff"></path></svg>