<?xml version="1.0" standalone="no"?><!DOCTYPE svg PUBLIC "-//W3C//DTD SVG 1.1//EN" "http://www.w3.org/Graphics/SVG/1.1/DTD/svg11.dtd"><svg t="1640598294666" class="icon" viewBox="0 0 1216 1024" version="1.1" xmlns="http://www.w3.org/2000/svg" p-id="7772" width="152" height="128" xmlns:xlink="http://www.w3.org/1999/xlink"><defs><style type="text/css"></style></defs><path d="M1136.602 34.384L80.45 442.42c-59.483 22.978-57.996 56.398 3.03 74.526l255.208 75.794 103.759 309.098c13.582 40.473 49.041 48.987 79.43 18.9l133.844-132.77L919.94 981.82c34.329 25.182 69.622 11.93 78.88-29.866l192.83-869.795c9.23-41.685-15.373-63.092-55.047-47.774zM975.895 231.073L525.376 632.88c-8.1 7.246-15.456 21.546-16.586 32.153l-19.864 187.184c-2.26 21.049-9.505 21.903-16.173 1.735l-87.145-263.06a25.127 25.127 0 0 1 10.332-28.35l571.332-343.07c36.45-21.847 40.307-16.723 8.623 11.6z m0 0" fill="#ac7e55" p-id="7773"></path></svg>